<?xml version="1.0" encoding="UTF-8" standalone="no"?>
<!-- Created with Inkscape (http://www.inkscape.org/) -->

<svg
   version="1.1"
   id="svg1"
   width="301.33252"
   height="295.09348"
   viewBox="0 0 301.33252 295.09348"
   sodipodi:docname="logo_black.svg"
   inkscape:version="1.3.2 (091e20e, 2023-11-25, custom)"
   xmlns:inkscape="http://www.inkscape.org/namespaces/inkscape"
   xmlns:sodipodi="http://sodipodi.sourceforge.net/DTD/sodipodi-0.dtd"
   xmlns="http://www.w3.org/2000/svg"
   xmlns:svg="http://www.w3.org/2000/svg">
  <defs
     id="defs1" />
  <sodipodi:namedview
     id="namedview1"
     pagecolor="#ffffff"
     bordercolor="#000000"
     borderopacity="0.25"
     inkscape:showpageshadow="2"
     inkscape:pageopacity="0.0"
     inkscape:pagecheckerboard="0"
     inkscape:deskcolor="#d1d1d1"
     inkscape:zoom="5.8685897"
     inkscape:cx="154.89241"
     inkscape:cy="146.28727"
     inkscape:window-width="3840"
     inkscape:window-height="2066"
     inkscape:window-x="-11"
     inkscape:window-y="-11"
     inkscape:window-maximized="1"
     inkscape:current-layer="g1" />
  <g
     inkscape:groupmode="layer"
     inkscape:label="Image"
     id="g1"
     transform="translate(-13.077963,-9.7488743)">
    <path
       style="fill:#000000"
       d="m 127.36,304.45396 c -0.792,-0.0679 -3.24,-0.27885 -5.44,-0.46882 C 74.053604,299.85186 36.588551,266.55623 19.397384,212.8721 -7.1119982,130.08929 53.281969,24.946918 135.21696,11.236982 c 35.18743,-5.8878077 74.14195,5.836828 108.5523,32.67236 2.1728,1.694499 3.65746,2.654736 3.73037,2.412702 0.0666,-0.221124 0.35931,-1.698044 0.65043,-3.282044 1.28446,-6.988611 5.82747,-20.10941 7.98389,-23.058495 1.04047,-1.422917 15.2311,5.942746 23.31527,12.101813 23.04671,17.558542 34.9478,41.738665 34.95007,71.010082 8.3e-4,10.74109 0.39374,9.79193 -3.54925,8.57402 C 242.90002,90.679057 198.34113,86.160398 150.4,95.396385 57.014663,113.38732 22.399445,218.5868 92.48,271.42168 149.65184,314.52447 228.61583,263.53879 212.26281,194.08 203.77034,158.00856 173.12644,139.41103 137.12,148.47646 c -33.31579,8.388 -44.700055,51.12306 -19.91321,74.75161 17.89526,17.05901 37.58013,16.31411 51.48057,-1.94807 17.64915,-23.18718 -13.85385,-55.21469 -33.47008,-34.02735 -8.39682,9.06935 -6.56513,19.64773 4.94272,28.54513 1.56031,1.20637 0.39247,0.90471 -3.2,-0.82656 -25.13041,-12.11077 -3.38111,-48.55307 23.23036,-38.92392 36.68746,13.27508 18.2931,67.94189 -22.24205,66.10188 C 77.335925,239.39781 80.477541,147.27943 141.6,135.0743 c 54.97025,-10.97663 102.13202,44.66958 84.96721,100.25288 -14.29049,46.27563 -52.79452,73.10493 -99.20721,69.12678 z m 23.17445,-96.24752 c -5.91378,-1.93311 -6.88351,-10.07204 -1.571,-13.18538 5.82751,-3.41515 12.62222,2.0122 10.67129,8.52381 -1.08616,3.62527 -5.44303,5.85706 -9.10029,4.66157 z"
       id="path1" />
  </g>
</svg>
