<?xml version="1.0" encoding="UTF-8" standalone="no"?>
<!-- Created with Inkscape (http://www.inkscape.org/) -->

<svg
   version="1.1"
   id="svg1"
   width="301.33252"
   height="295.09348"
   viewBox="0 0 301.33252 295.09348"
   sodipodi:docname="uE01B-sumaforestal-logo.svg"
   inkscape:version="1.3.2 (091e20e, 2023-11-25, custom)"
   xmlns:inkscape="http://www.inkscape.org/namespaces/inkscape"
   xmlns:sodipodi="http://sodipodi.sourceforge.net/DTD/sodipodi-0.dtd"
   xmlns="http://www.w3.org/2000/svg"
   xmlns:svg="http://www.w3.org/2000/svg">
  <defs
     id="defs1" />
  <sodipodi:namedview
     id="namedview1"
     pagecolor="#ffffff"
     bordercolor="#000000"
     borderopacity="0.25"
     inkscape:showpageshadow="2"
     inkscape:pageopacity="0.0"
     inkscape:pagecheckerboard="0"
     inkscape:deskcolor="#d1d1d1"
     inkscape:zoom="5.8685897"
     inkscape:cx="137.85254"
     inkscape:cy="141.17532"
     inkscape:window-width="3840"
     inkscape:window-height="2066"
     inkscape:window-x="-11"
     inkscape:window-y="-11"
     inkscape:window-maximized="1"
     inkscape:current-layer="layer2"
     showguides="true"
     showgrid="true">
    <sodipodi:guide
       position="-25,150.09348"
       orientation="0,-1"
       id="guide2"
       inkscape:locked="false" />
    <sodipodi:guide
       position="150,305.09348"
       orientation="1,0"
       id="guide3"
       inkscape:locked="false" />
    <inkscape:grid
       id="grid3"
       units="px"
       originx="0"
       originy="0"
       spacingx="1"
       spacingy="1"
       empcolor="#0099e5"
       empopacity="0.30196078"
       color="#0099e5"
       opacity="0.14901961"
       empspacing="5"
       dotted="false"
       gridanglex="30"
       gridanglez="30"
       visible="true" />
  </sodipodi:namedview>
  <g
     inkscape:groupmode="layer"
     id="layer2"
     inkscape:label="circle">
    <path
       id="path3"
       style="display:inline;opacity:1;fill:#000000;fill-opacity:1;stroke:none;stroke-width:1.03474;stroke-linejoin:bevel;stroke-opacity:1;paint-order:markers stroke fill"
       d="M 150.66211,0.51757812 A 150.15219,147.24097 0 0 0 0.51171875,147.75781 150.15219,147.24097 0 0 0 150.66211,295 150.15219,147.24097 0 0 0 300.81445,147.75781 150.15219,147.24097 0 0 0 150.66211,0.51757812 Z M 112.42969,44.787109 c 23.72084,0 41.55362,5.45577 53.5,16.367188 12.03232,10.911418 18.34955,25.475654 18.95117,43.691403 l -38.16016,1.75782 c -1.63296,-10.19001 -5.15576,-17.495393 -10.57031,-21.914067 -5.32859,-4.50885 -13.36428,-6.761719 -24.10742,-6.761719 -11.08692,0 -19.768976,2.388588 -26.04297,7.167969 -4.03942,3.066018 -6.058594,7.170458 -6.058594,12.310547 0,4.68921 1.89029,8.70056 5.671875,12.03711 4.812927,4.23832 16.502259,8.65683 35.066409,13.25586 18.56414,4.59902 32.27265,9.38011 41.125,14.33984 8.93829,4.86957 15.89995,11.58749 20.88476,20.1543 5.07077,8.47664 7.60547,18.98103 7.60547,31.51562 0,11.36231 -3.00727,22.00436 -9.02344,31.92383 -6.01615,9.91947 -14.52441,17.31403 -25.52539,22.1836 -11.00097,4.77937 -24.70947,7.16796 -41.125,7.16797 -23.892734,0 -42.243002,-5.76986 -55.048824,-17.3125 C 46.766443,221.03904 39.117409,204.1308 36.625,181.94727 l 37.128906,-3.78907 c 2.234574,13.07567 6.747445,22.68047 13.53711,28.8125 6.875609,6.13205 16.114204,9.19727 27.716794,9.19727 12.29016,0 21.52875,-2.70461 27.7168,-8.11524 6.27399,-5.50079 9.41211,-11.90268 9.41211,-19.20703 0,-4.6892 -1.33375,-8.65793 -3.99805,-11.90429 -2.57835,-3.33656 -7.13224,-6.22148 -13.66406,-8.65625 -4.46915,-1.62319 -14.65484,-4.51006 -30.55469,-8.65821 -20.454934,-5.32044 -34.80786,-11.85806 -43.058592,-19.61328 -11.60259,-10.91142 -17.402344,-24.21155 -17.402344,-39.90234 0,-10.099829 2.706552,-19.524317 8.121094,-28.271486 5.500488,-8.837347 13.364328,-15.55527 23.591797,-20.154297 10.313414,-4.599028 22.733085,-6.898438 37.257815,-6.898438 z m 87.06054,96.853511 77.78516,43.22852 v 15.75195 l -77.78516,43.22852 v -18.66016 l 60.03125,-32.44336 -60.03125,-32.25781 z" />
  </g>
  <g
     inkscape:groupmode="layer"
     id="layer3"
     inkscape:label="symbol" />
</svg>
