<?xml version="1.0" encoding="UTF-8" standalone="no"?>
<!-- Created with Inkscape (http://www.inkscape.org/) -->

<svg
   version="1.1"
   id="svg1"
   width="512.00043"
   height="511.92999"
   viewBox="0 0 512.00043 511.92999"
   sodipodi:docname="uE026-sketchfab.svg"
   inkscape:version="1.3.2 (091e20e, 2023-11-25, custom)"
   xmlns:inkscape="http://www.inkscape.org/namespaces/inkscape"
   xmlns:sodipodi="http://sodipodi.sourceforge.net/DTD/sodipodi-0.dtd"
   xmlns="http://www.w3.org/2000/svg"
   xmlns:svg="http://www.w3.org/2000/svg">
  <defs
     id="defs1" />
  <sodipodi:namedview
     id="namedview1"
     pagecolor="#ffffff"
     bordercolor="#000000"
     borderopacity="0.25"
     inkscape:showpageshadow="2"
     inkscape:pageopacity="0.0"
     inkscape:pagecheckerboard="0"
     inkscape:deskcolor="#d1d1d1"
     inkscape:zoom="0.49450749"
     inkscape:cx="257.8323"
     inkscape:cy="255.81008"
     inkscape:window-width="2880"
     inkscape:window-height="1526"
     inkscape:window-x="5749"
     inkscape:window-y="-11"
     inkscape:window-maximized="1"
     inkscape:current-layer="g1" />
  <g
     inkscape:groupmode="layer"
     inkscape:label="Image"
     id="g1"
     style="display:inline"
     transform="translate(-743.99788,-743.89543)">
    <path
       style="display:inline;fill:#000000;fill-opacity:1;stroke:#ffffff;stroke-width:0.255849;stroke-dasharray:none;stroke-opacity:1"
       d="m 986.56651,1255.4657 c -23.62438,-1.3435 -45.78834,-5.5371 -67.41624,-12.7558 -45.66365,-15.2412 -85.45367,-42.5437 -116.5404,-79.9658 -12.49589,-15.0425 -23.93986,-32.8014 -32.64447,-50.6581 -20.27168,-41.5855 -28.82911,-87.631 -24.91558,-134.06495 1.69611,-20.12438 5.75959,-39.87179 12.13506,-58.97322 15.24115,-45.66366 42.5436,-85.45367 79.96576,-116.54041 15.04253,-12.49589 32.80143,-23.93985 50.65812,-32.64447 41.58542,-20.27168 87.63096,-28.82911 134.06494,-24.91558 20.4622,1.72459 40.0149,5.78276 59.7653,12.40431 32.8373,11.00905 62.8735,28.53453 89.3947,52.15979 4.2853,3.81738 15.5322,15.06425 19.3496,19.34956 24.0723,27.02304 41.6816,57.4279 52.7514,91.08227 10.713,32.56984 14.7308,67.20436 11.8126,101.8279 -1.6961,20.1244 -5.7595,39.8718 -12.135,58.9733 -15.2411,45.6636 -42.5436,85.4536 -79.9658,116.5404 -18.183,15.1047 -39.9738,28.4219 -61.6596,37.6827 -28.6264,12.2247 -56.6449,18.7281 -88.3959,20.5178 -5.1668,0.2913 -20.96518,0.2794 -26.22449,-0.02 z m -8.89026,-169.9556 -0.0645,-65.9502 -54.87963,-29.64439 c -30.18379,-16.30444 -54.9662,-29.55919 -55.07202,-29.45502 -0.10582,0.10418 -0.16338,28.95585 -0.12793,64.11481 l 0.0645,63.9255 54.8756,31.6761 c 30.18158,17.4218 54.96398,31.5877 55.07201,31.4797 0.10802,-0.1081 0.1674,-29.874 0.13196,-66.1465 z m 95.75105,34.6903 c 29.6209,-17.094 54.0001,-31.1942 54.176,-31.3337 0.2543,-0.2016 0.3198,-13.32 0.3198,-64.0566 0,-35.09166 -0.086,-63.79918 -0.1919,-63.79449 -0.1055,0.005 -24.7725,13.29419 -54.8156,29.53223 l -54.6238,29.52366 -0.066,65.5797 c -0.036,36.0688 -0.01,65.7286 0.06,65.9105 0.1,0.2622 0.246,0.2673 0.7052,0.025 0.3187,-0.1683 24.8147,-14.292 54.4357,-31.3861 z m -10.836,-165.39766 c 35.6493,-18.89126 64.8176,-34.46381 64.8185,-34.60569 0,-0.41212 -129.24529,-74.95381 -129.9697,-74.95799 -0.72793,-0.004 -129.97134,74.52872 -129.97134,74.9527 0,0.2966 129.38422,68.95571 129.9466,68.95755 0.19748,7.7e-4 29.52664,-15.45531 65.17594,-34.34657 z"
       id="path1" />
  </g>
</svg>
