<?xml version="1.0" encoding="UTF-8" standalone="no"?>
<svg
   width="512"
   height="512"
   viewBox="0 0 512 512"
   version="1.1"
   id="svg1"
   sodipodi:docname="logo-natursmart.svg"
   inkscape:version="1.3.2 (091e20e, 2023-11-25, custom)"
   xmlns:inkscape="http://www.inkscape.org/namespaces/inkscape"
   xmlns:sodipodi="http://sodipodi.sourceforge.net/DTD/sodipodi-0.dtd"
   xmlns="http://www.w3.org/2000/svg"
   xmlns:svg="http://www.w3.org/2000/svg"
   xmlns:rdf="http://www.w3.org/1999/02/22-rdf-syntax-ns#"
   xmlns:cc="http://creativecommons.org/ns#"
   xmlns:dc="http://purl.org/dc/elements/1.1/">
  <defs
     id="defs1" />
  <sodipodi:namedview
     id="namedview1"
     pagecolor="#ffffff"
     bordercolor="#000000"
     borderopacity="0.25"
     inkscape:showpageshadow="2"
     inkscape:pageopacity="0.0"
     inkscape:pagecheckerboard="0"
     inkscape:deskcolor="#d1d1d1"
     inkscape:zoom="1.5861561"
     inkscape:cx="75.33937"
     inkscape:cy="256.9104"
     inkscape:window-width="2880"
     inkscape:window-height="1526"
     inkscape:window-x="5749"
     inkscape:window-y="-11"
     inkscape:window-maximized="1"
     inkscape:current-layer="svg1" />
  <title
     id="title1">Group</title>
  <g
     id="Page-1"
     stroke="none"
     stroke-width="1"
     fill="none"
     fill-rule="evenodd"
     transform="matrix(4.6089051,0,0,4.5909055,43.172217,3.5004218)">
    <g
       id="Medium"
       transform="translate(-80,-29)">
      <g
         id="Group"
         transform="translate(80,29)">
        <path
           d="M 38.617382,61.044662 15.793821,92.360336 c -0.211192,0.289383 -0.548584,0.428286 -0.902717,0.372339 -0.35349,-0.05659 -0.631645,-0.292598 -0.742392,-0.634069 L 0.09735111,48.778065 C -0.01339599,48.437237 0.07223985,48.082261 0.32592798,47.829534 0.57961611,47.576164 0.93503704,47.491278 1.2762926,47.603173 L 38.15057,59.60804 c 0.287814,0.09324 0.506733,0.312533 0.600095,0.599986 0.09336,0.287453 0.04443,0.592269 -0.133283,0.836636"
           id="Fill-21"
           fill="#20b846" />
        <path
           d="m 79.248884,109.96585 c -0.341899,0.10096 -0.70891,-0.0277 -0.911732,-0.30997 L 58.030512,81.689972 c -0.159038,-0.218001 -0.202178,-0.491307 -0.118473,-0.747892 0.0837,-0.256586 0.279443,-0.451437 0.53635,-0.534393 L 91.507687,69.710828 c 0.304555,-0.09839 0.621987,-0.02379 0.848632,0.203854 0.226001,0.226361 0.301979,0.543396 0.202178,0.847569 L 79.957795,109.38001 c -0.12105,0.37041 -0.376669,0.48873 -0.708911,0.58584"
           id="Fill-23"
           fill="#6d44b0" />
        <path
           d="M 81.463376,30.897321 41.902837,43.713745 c -0.309706,0.100319 -0.63744,0.04823 -0.90143,-0.143405 -0.263346,-0.191635 -0.414658,-0.486805 -0.414016,-0.812843 l 0.02061,-41.6485536 c 0,-0.37812627 0.209904,-0.72088361 0.546653,-0.89322689 0.357996,-0.1832755 0.766859,-0.36719407 1.245905,-0.0192922 L 81.767286,28.793833 c 0.484197,0.351761 0.417877,0.792908 0.388903,1.214763 -0.02704,0.412852 -0.299404,0.761397 -0.692813,0.888725"
           id="Fill-25"
           fill="#c6d900" />
        <path
           d="m 34.268884,52.046543 c -0.218274,0.159481 -0.491279,0.20321 -0.748186,0.120254 L 0.65778296,41.581833 C 0.40988973,41.502092 0.20706801,41.322675 0.09567703,41.093741 -0.10521306,40.681532 0.01841161,40.184438 0.3899295,39.913705 L 33.205841,15.994644 c 0.258195,-0.18842 0.583354,-0.214786 0.869236,-0.07009 0.28717,0.143405 0.457154,0.422498 0.457798,0.742105 l 0.07856,34.704663 c 6.42e-4,0.27009 -0.124271,0.515744 -0.342546,0.675226"
           id="Fill-27"
           fill="#bd92de" />
        <path
           d="m 65.572519,101.99658 c 0.170627,-0.33247 0.138434,-0.71188 -0.07855,-1.01348 L 41.808251,68.366486 c -0.184793,-0.254656 -0.469387,-0.398704 -0.784244,-0.402828 -0.274936,-0.0068 -0.587861,0.127594 -0.788751,0.402828 L 16.494812,100.94001 c -0.219563,0.30096 -0.249181,0.67844 -0.0792,1.01348 0.178354,0.3434 0.497074,0.52861 0.865372,0.52861 l 7.694992,0.007 39.730523,0.036 c 0.37023,0 0.696033,-0.19614 0.866017,-0.5286"
           id="Fill-29"
           fill="#9f3bb7" />
      </g>
    </g>
  </g>
  <metadata
     id="metadata1">
    <rdf:RDF>
      <cc:Work
         rdf:about="">
        <dc:title>Group</dc:title>
      </cc:Work>
    </rdf:RDF>
  </metadata>
</svg>
