<?xml version="1.0" encoding="iso-8859-1"?>
<!-- Uploaded to: SVG Repo, www.svgrepo.com, Generator: SVG Repo Mixer Tools -->
<!DOCTYPE svg PUBLIC "-//W3C//DTD SVG 1.1//EN" "http://www.w3.org/Graphics/SVG/1.1/DTD/svg11.dtd">
<svg fill="#000000" version="1.1" id="Capa_1" xmlns="http://www.w3.org/2000/svg" xmlns:xlink="http://www.w3.org/1999/xlink" 
	 width="800px" height="800px" viewBox="0 0 917.701 917.7"
	 xml:space="preserve">
<g>
	<path d="M792.65,917.7h105c11,0,20-9,20-20v-105c0-11-9-20-20-20h-50c-11,0-20,9-20,20v15c0,11-9,20-20,20h-15c-11,0-20,9-20,20v50
		C772.65,908.7,781.65,917.7,792.65,917.7z"/>
	<path d="M222.05,827.7c-11,0-20,9-20,20v50c0,11,9,20,20,20h188.2c11,0,20-9,20-20v-50c0-11-9-20-20-20H222.05z"/>
	<path d="M715.65,897.7v-50c0-11-9-20-20-20h-188.3c-11,0-20,9-20,20v50c0,11,9,20,20,20h188.2
		C706.65,917.7,715.65,908.7,715.65,897.7z"/>
	<path d="M20.05,917.7h105c11,0,20-9,20-20v-50c0-11-9-20-20-20h-15c-11,0-20-9-20-20v-15c0-11-9-20-20-20h-50c-11,0-20,9-20,20v105
		C0.05,908.7,8.95,917.7,20.05,917.7z"/>
	<path d="M20.05,715.601h50c11,0,20-9,20-20V507.4c0-11-9-20-20-20h-50c-11,0-20,9-20,20v188.2
		C0.05,706.7,8.95,715.601,20.05,715.601z"/>
	<path d="M20.05,430.3h50c11,0,20-9,20-20V222.1c0-11-9-20-20-20h-50c-11,0-20,9-20,20v188.2C0.05,421.4,8.95,430.3,20.05,430.3z"/>
	<path d="M20.05,145h50c11,0,20-9,20-20v-15c0-11,9-20,20-20h15c11,0,20-9,20-20V20c0-11-9-20-20-20h-105c-11,0-20,9-20,20v105
		C0.05,136.1,8.95,145,20.05,145z"/>
	<path d="M410.35,90c11,0,20-9,20-20V20c0-11-9-20-20-20h-188.3c-11,0-20,9-20,20v50c0,11,9,20,20,20H410.35z"/>
	<path d="M695.65,90c11,0,20-9,20-20V20c0-11-9-20-20-20h-188.3c-11,0-20,9-20,20v50c0,11,9,20,20,20H695.65z"/>
	<path d="M792.65,0c-11,0-20,9-20,20v50c0,11,9,20,20,20h15c11,0,20,9,20,20v15c0,11,9,20,20,20h50c11,0,20-9,20-20V20
		c0-11-9-20-20-20H792.65z"/>
	<path d="M917.65,222.1c0-11-9-20-20-20h-50c-11,0-20,9-20,20v188.2c0,11,9,20,20,20h50c11,0,20-9,20-20V222.1z"/>
	<path d="M917.65,507.4c0-11-9-20-20-20h-50c-11,0-20,9-20,20v188.2c0,11,9,20,20,20h50c11,0,20-9,20-20V507.4z"/>
	<path d="M766.75,711c3.899-3.899,3.899-10.2,0-14.1l-116.2-116.2c-10.601,15.5-22.601,30.1-36,43.5
		c-6.9,6.9-14.101,13.4-21.601,19.6l113.4,113.4c3.9,3.9,10.2,3.9,14.1,0L766.75,711z"/>
	<path d="M403.05,671.8c61.1,0,117.2-21.1,161.5-56.5c22.399-17.8,41.7-39.3,57.1-63.5c25.601-40.199,40.5-87.899,40.5-139.1
		c0-143.1-116-259.2-259.2-259.2c-143.2,0-259.1,116-259.1,259.101C143.85,555.8,259.95,671.8,403.05,671.8z M255.95,390
		c0-11,9-20,20-20h64.4c11,0,20-9,20-20v-64.4c0-11,9-20,20-20h45.3c11,0,20,9,20,20V350c0,11,9,20,20,20h64.4c11,0,20,9,20,20v45.3
		c0,11-9,20-20,20h-4.9h-59.5c-11,0-20,9-20,20v64.4c0,11-9,20-20,20h-45.3c-11,0-20-9-20-20v-64.4c0-11-9-20-20-20h-64.4
		c-11,0-20-9-20-20V390z"/>
</g>
</svg>