<?xml version="1.0" encoding="iso-8859-1"?>
<!-- Uploaded to: SVG Repo, www.svgrepo.com, Generator: SVG Repo Mixer Tools -->
<!DOCTYPE svg PUBLIC "-//W3C//DTD SVG 1.1//EN" "http://www.w3.org/Graphics/SVG/1.1/DTD/svg11.dtd">
<svg fill="#000000" height="800px" width="800px" version="1.1" id="Capa_1" xmlns="http://www.w3.org/2000/svg" xmlns:xlink="http://www.w3.org/1999/xlink" 
	 viewBox="0 0 379 379" xml:space="preserve">
<path d="M342.542,147.704c-7.415-17.9-22.547-47.93-40.588-47.93c-4.761,0-10.99,3.969-12.787,5.187
	c-2.127,1.442-3.239,4.202-2.706,6.712c0.067,0.317,6.743,31.932,8.147,46.828c4.161,44.158-3.688,76.499-23.328,96.142
	c-3.925,3.924-11.349,10.388-11.42,10.451c-1.5,1.306-2.217,3.185-1.919,5.087c0.298,1.903,1.567,3.436,3.4,4.223
	c0.713,0.305,13.889,5.785,30.673,8.323c-0.157,0.615-0.249,1.26-0.249,1.932V351h-88v-84.101
	c21.182-3.392,38.714-14.535,49.277-31.572c22.965-37.035,3.935-147.923-27.03-203.55C214.267,10.68,202.074,0,189.769,0
	c-0.001,0-0.003,0-0.006,0c-12.191,0-24.309,10.722-36.013,31.747c-31.026,55.734-50.181,166.609-27.263,203.571
	c13.299,21.447,34.021,28.994,49.278,31.507V351h-88v-66.636c0-0.721-0.102-1.413-0.285-2.066
	c15.031-2.588,26.404-7.246,27.057-7.523c1.835-0.779,3.111-2.163,3.412-4.069c0.301-1.907-0.418-3.827-1.925-5.136
	c-0.078-0.067-7.854-6.822-11.946-10.913C85.92,236.499,79.81,204.132,85.4,155.715c1.568-13.576,7.157-41.544,7.214-41.826
	c0.479-2.394-0.49-5.026-2.411-6.529c-2.281-1.786-10.158-7.641-15.77-7.641c-15.563,0-28.099,22.321-35.875,41.092
	C21.49,182.022,9.104,250.816,27.71,269.422c9.076,9.076,21.545,13.819,37.091,14.487c-0.023,0.246-0.035,0.496-0.035,0.75V351
	H40.101c-4.518,0-8.335,3.614-8.335,7.892v11.864c0,4.392,3.895,8.244,8.335,8.244h6.011h59.962h167.557h59.963h6.234
	c4.303,0,7.938-3.775,7.938-8.244v-11.864c0-4.425-3.486-7.892-7.938-7.892h-25.063v-66.636c0-0.211-0.013-0.418-0.028-0.625
	c14.116-1.105,25.515-5.815,33.939-14.24C369.057,249.12,360.726,191.606,342.542,147.704z"/>
</svg>