<?xml version="1.0" encoding="iso-8859-1"?>
<!-- Uploaded to: SVG Repo, www.svgrepo.com, Generator: SVG Repo Mixer Tools -->
<!DOCTYPE svg PUBLIC "-//W3C//DTD SVG 1.1//EN" "http://www.w3.org/Graphics/SVG/1.1/DTD/svg11.dtd">
<svg fill="#000000" version="1.1" id="Capa_1" xmlns="http://www.w3.org/2000/svg" xmlns:xlink="http://www.w3.org/1999/xlink" 
	 width="800px" height="800px" viewBox="0 0 187.557 187.557"
	 xml:space="preserve">
<g>
	<path d="M176.905,87.924c13.658-21.003,16.423-47.094-5.156-66.877c-20.614-18.898-58.055-18.471-71.795,7.431
		c-6.393-7.359-14.697-12.66-24.375-14.242c-0.062-0.022-0.118-0.05-0.18-0.072C51.241,5.833,35.692,28.982,28.121,47.888
		c-0.146,0.365-0.169,0.78-0.14,1.202c-7.327,0.862-14.248,4.46-19.619,11.867c-12.764,17.604-9.208,41.61-0.691,60.204
		c5.376,11.738,18.687,23.891,31.83,22.845c-0.234,10.347,0.309,21.086,1.45,31.263c0.648,5.779,9.216,6.098,9.242,0
		c0.023-5.379-0.136-10.757-0.142-16.136c-0.006-4.395,1.078-9.01,1.301-13.44c7.077-5.613,13.007-11.794,17.53-18.394
		c2.082,2.042,4.643,3.15,7.398,3.545c0.061,2.584,0.589,5.302,0.749,7.052c0.601,6.58,0.653,15.738,4.331,21.448
		c2.488,3.862,9.385,2.642,9.108-2.467c-0.278-5.128-2.336-10.372-3.46-15.378c-0.826-3.678-1.686-7.548-3.018-11.176
		c0.248-0.064,0.499-0.105,0.745-0.178c3.324-0.965,9.758-3.918,12.533-7.789c5.215,7.292,12.996,12.471,23.378,13.083
		c0.494,0.028,0.946-0.009,1.429,0.002c-1.346,3.897-0.388,9.527-0.407,13.158c-0.033,5.958,0.142,11.928,0.229,17.886
		c0.109,7.351,11.52,7.361,11.41,0c-0.088-5.921-0.541-11.936-1.334-17.803c-0.486-3.591-0.484-10.02-2.738-13.788
		c13.157-2.58,20.707-13.232,23.431-25.604c0.222,0.109,0.451,0.203,0.688,0.28c-0.906,2.753-1.308,6.178-1.361,6.887
		c-0.414,5.378-0.438,10.727-0.423,16.117c0.012,3.957-0.763,9.411,1.383,12.896c1.93,3.137,6.572,3.224,8.483,0
		c3.188-5.376,0.338-15.222-0.248-21.097c-0.358-3.606-0.353-12.387-2.895-16.081c1.979-1.576,3.896-3.246,5.742-4.995
		C169.507,99.341,173.833,94.053,176.905,87.924z M156.374,98.429c-0.838,0.474-1.656,0.972-2.557,1.367
		c0.563-21.218-11.614-42.838-33.31-36.312c-2.396-0.24-4.653-0.23-6.77,0.011c-0.397-9.093-3.046-18.146-7.437-26.01
		c7.653-28.25,47.522-20.9,60.516-1.019c7.98,12.208,9.534,30.548,3.882,44.807C166.665,87.7,161.626,93.58,156.374,98.429z
		 M55.048,128.861c-16.827,12.455-33.602-0.64-41.42-15.966c-4.902-10.925-5.957-23.912-3.481-35.366
		c0.53-2.163,1.201-4.27,2.026-6.271c8.351-18.883,32.386-15.113,46.088-1.123C69.429,87.794,70.35,117.535,55.048,128.861z
		 M92.284,112.9c-2.985,1.598-5.319,4.719-8.437,6.352c-3.592,1.881-7.259,2.103-10.944,1.485c8.074-15.731,7.816-33.512-5.3-51.846
		c-2.548-3.562-5.708-6.853-9.255-9.705c-6.189-6.982-13.872-11.07-22.308-10.04c0.211-0.376,0.423-0.75,0.637-1.126
		c0.874,0.479,2.074,0.511,3.709-0.18c0.108-0.045,0.204-0.213,0.188-0.328c-0.351-2.634,0.058-5.19,1.025-7.61
		c2.912-4.414,6.136-8.453,9.868-11.579c3.353-2.41,7.096-4.329,10.738-5.602c4.165-0.986,8.858-0.9,14.237,0.676
		C93.773,28.475,100.269,51.526,103.455,67C89.845,75.357,86.213,96.336,92.284,112.9z M117.551,126.063
		c-13.893-1.927-19.55-17.335-19.633-29.524c-0.089-13.044,7.209-22.779,18.156-28.03c0.357,1.894,1.973,3.48,4.458,2.781
		C152.623,62.268,155.151,131.275,117.551,126.063z"/>
</g>
</svg>