<?xml version="1.0" encoding="iso-8859-1"?>
<!-- Uploaded to: SVG Repo, www.svgrepo.com, Generator: SVG Repo Mixer Tools -->
<svg fill="#000000" height="800px" width="800px" version="1.1" id="Layer_1" xmlns="http://www.w3.org/2000/svg" xmlns:xlink="http://www.w3.org/1999/xlink" 
	 viewBox="0 0 512 512" xml:space="preserve">
<g>
	<g>
		<path d="M493.9,419.557h-37.646c0.421-1.521,0.663-3.117,0.663-4.772v-69.239C491.062,321.564,512,280.756,512,237.26
			c0-46.044-23.454-89.087-61.21-112.335c-5.753-3.543-13.011-3.543-18.765,0c-1.627,1.002-3.217,2.054-4.791,3.128
			c-3.625-19.897-10.398-39.066-20.123-56.609c-14.8-26.697-36-49.045-61.306-64.626c-5.753-3.543-13.011-3.543-18.765,0
			c-25.306,15.582-46.504,37.929-61.306,64.626c-9.323,16.818-15.935,35.128-19.661,54.143c-0.903,0.569-1.804,1.141-2.691,1.732
			c-3.658-19.634-10.389-38.547-19.995-55.875c-14.8-26.697-36-49.045-61.306-64.626c-5.753-3.543-13.011-3.543-18.765,0
			c-25.302,15.582-46.502,37.93-61.302,64.627c-9.184,16.565-15.73,34.583-19.485,53.291c-0.111,0.064-0.224,0.122-0.334,0.19
			c-37.755,23.247-61.21,66.291-61.21,112.335c0,42.471,19.968,82.378,52.697,106.561v70.964c0,1.655,0.242,3.251,0.663,4.772
			H17.895C8.012,419.558,0,427.57,0,437.453c0,9.883,8.012,17.895,17.895,17.895H493.9c9.883,0,17.895-8.012,17.895-17.895
			C511.795,427.57,503.783,419.557,493.9,419.557z M71.58,312.445c-21.703-17.695-34.802-45.532-34.802-75.184
			c0-29.654,13.099-57.492,34.802-75.185c21.703,17.695,34.802,45.532,34.802,75.185S93.284,294.752,71.58,312.445z M88.811,419.558
			c0.421-1.522,0.663-3.117,0.663-4.773v-70.963c14.368-10.616,26.272-24.262,35.11-39.828c2.936,2.411,5.947,4.724,9.031,6.931
			v103.861c0,1.655,0.242,3.251,0.663,4.772H88.811z M152.703,280.562c-5.009-3.708-9.736-7.766-14.182-12.114
			c2.386-10.1,3.651-20.561,3.651-31.187c0-39.223-17.03-76.26-45.413-100.746c6.36-37.416,26.445-71.042,55.944-92.873
			c35.332,26.149,57.156,69.216,58.067,115.453c-15.847,22.236-24.868,49.623-24.868,78.166c0,2.61,0.086,5.209,0.235,7.797
			C177.111,258.759,165.847,270.836,152.703,280.562z M168.742,419.557c0.421-1.521,0.663-3.116,0.663-4.772V312.582
			c9.725-6.709,18.774-14.434,26.988-23.053c8.832,21.129,22.915,39.696,41.013,53.409v71.847c0,1.655,0.242,3.251,0.663,4.772
			H168.742z M256.494,312.445c-21.703-17.695-34.802-45.532-34.802-75.184c0-29.654,13.099-57.492,34.802-75.185
			c21.703,17.695,34.802,45.532,34.802,75.185S278.198,294.752,256.494,312.445z M272.533,419.556
			c0.421-1.52,0.663-3.115,0.663-4.771v-70.081c14.698-10.588,26.879-24.322,35.923-40.04c2.677,2.171,5.419,4.258,8.217,6.26
			v103.861c0,1.655,0.242,3.251,0.663,4.772H272.533z M336.425,280.563c-4.646-3.438-9.054-7.175-13.216-11.166
			c2.534-10.392,3.877-21.177,3.877-32.136c0-39.702-17.449-77.159-46.456-101.632c6.524-37.062,26.53-70.328,55.795-91.987
			c35.759,26.465,57.684,70.26,58.092,117.131c-15.118,21.93-23.7,48.657-23.7,76.489c0,2.039,0.062,4.07,0.154,6.096
			C361.765,257.763,350.111,270.434,336.425,280.563z M352.463,419.557c0.421-1.521,0.663-3.117,0.663-4.772V312.582
			c10.055-6.936,19.384-14.964,27.817-23.936c8.615,21.025,22.41,39.562,40.184,53.375v72.764c0,1.655,0.242,3.251,0.663,4.772
			H352.463z M441.408,312.445c-21.703-17.695-34.802-45.532-34.802-75.184c0-29.654,13.099-57.492,34.802-75.185
			c21.703,17.695,34.802,45.532,34.802,75.185S463.112,294.752,441.408,312.445z"/>
	</g>
</g>
<g>
	<g>
		<path d="M450.952,472.049H163.44c-9.883,0-17.895,8.012-17.895,17.895c0,9.883,8.012,17.895,17.895,17.895h287.512
			c9.883,0,17.895-8.012,17.895-17.895C468.847,480.061,460.835,472.049,450.952,472.049z"/>
	</g>
</g>
<g>
	<g>
		<path d="M103.791,472.049H76.352c-9.883,0-17.895,8.012-17.895,17.895c0,9.883,8.012,17.895,17.895,17.895h27.439
			c9.883,0,17.895-8.012,17.895-17.895C121.685,480.061,113.673,472.049,103.791,472.049z"/>
	</g>
</g>
</svg>