<?xml version="1.0" encoding="UTF-8" standalone="no"?>
<svg
   id="mdi-pine-tree-fire"
   viewBox="0 0 21.113375 19.058817"
   version="1.1"
   sodipodi:docname="Pictogrammers-Material-Pine-tree-fire.svg"
   width="21.113375"
   height="19.058817"
   inkscape:version="1.3.2 (091e20e, 2023-11-25, custom)"
   xmlns:inkscape="http://www.inkscape.org/namespaces/inkscape"
   xmlns:sodipodi="http://sodipodi.sourceforge.net/DTD/sodipodi-0.dtd"
   xmlns="http://www.w3.org/2000/svg"
   xmlns:svg="http://www.w3.org/2000/svg">
  <defs
     id="defs1" />
  <sodipodi:namedview
     id="namedview1"
     pagecolor="#ffffff"
     bordercolor="#000000"
     borderopacity="0.25"
     inkscape:showpageshadow="2"
     inkscape:pageopacity="0.0"
     inkscape:pagecheckerboard="0"
     inkscape:deskcolor="#d1d1d1"
     inkscape:zoom="76.291667"
     inkscape:cx="9.9945385"
     inkscape:cy="8.9983616"
     inkscape:window-width="3840"
     inkscape:window-height="2066"
     inkscape:window-x="-11"
     inkscape:window-y="-11"
     inkscape:window-maximized="1"
     inkscape:current-layer="mdi-pine-tree-fire" />
  <path
     d="m 20.14,11.84 -0.02,0.01 c 0.23,0.28 0.43,0.59 0.58,0.92 l 0.09,0.19 C 21.5,14.65 21,16.6 19.69,17.82 18.5,18.91 16.84,19.2 15.3,19 13.84,18.82 12.5,17.9 11.73,16.63 11.5,16.24 11.3,15.8 11.2,15.35 11.07,15 11.03,14.62 11,14.25 c -0.09,-1.6 0.55,-3.3 1.76,-4.3 -0.55,1.21 -0.42,2.72 0.39,3.77 l 0.11,0.13 C 13.4,13.97 13.57,14 13.73,13.94 13.88,13.88 14,13.73 14,13.57 L 13.93,13.33 C 13.05,11 13.79,8.3 15.66,6.77 16.17,6.35 16.8,5.97 17.46,5.8 16.78,7.16 17,8.94 18.09,10 c 0.46,0.5 1.02,0.79 1.49,1.23 l 0.56,0.61 m -2.28,4.66 -0.01,-0.03 c 0.45,-0.39 0.7,-1.06 0.68,-1.66 L 18.5,14.5 c -0.2,-1 -1.07,-1.34 -1.63,-2.07 -0.17,-0.22 -0.32,-0.5 -0.43,-0.78 -0.22,0.5 -0.24,0.97 -0.15,1.51 0.1,0.57 0.32,1.06 0.21,1.65 -0.16,0.65 -0.67,1.3 -1.56,1.51 0.5,0.49 1.31,0.88 2.12,0.6 0.26,-0.07 0.59,-0.26 0.8,-0.42 M 7,18 V 15 H 0 L 5,10 H 2 L 7,5 H 4 l 5,-5 5,5 h -3 l 1.82,1.82 C 10.55,8.06 9,10.59 9,13.5 c 0,1.69 0.5,3.25 1.4,4.5 z"
     id="path1" />
</svg>
