<?xml version="1.0" encoding="UTF-8" standalone="no"?>
<!-- Created with Inkscape (http://www.inkscape.org/) -->

<svg
   width="174.84689mm"
   height="183.57498mm"
   viewBox="0 0 174.84689 183.57498"
   version="1.1"
   id="svg1"
   xml:space="preserve"
   inkscape:version="1.3.2 (091e20e, 2023-11-25, custom)"
   sodipodi:docname="icono_biomasa.svg"
   xmlns:inkscape="http://www.inkscape.org/namespaces/inkscape"
   xmlns:sodipodi="http://sodipodi.sourceforge.net/DTD/sodipodi-0.dtd"
   xmlns="http://www.w3.org/2000/svg"
   xmlns:svg="http://www.w3.org/2000/svg"><sodipodi:namedview
     id="namedview1"
     pagecolor="#ffffff"
     bordercolor="#000000"
     borderopacity="0.25"
     inkscape:showpageshadow="2"
     inkscape:pageopacity="0.0"
     inkscape:pagecheckerboard="0"
     inkscape:deskcolor="#d1d1d1"
     inkscape:document-units="mm"
     inkscape:zoom="1.6311518"
     inkscape:cx="339.02424"
     inkscape:cy="325.84337"
     inkscape:window-width="2880"
     inkscape:window-height="1526"
     inkscape:window-x="5749"
     inkscape:window-y="-11"
     inkscape:window-maximized="1"
     inkscape:current-layer="layer1" /><defs
     id="defs1" /><g
     inkscape:label="Capa 1"
     inkscape:groupmode="layer"
     id="layer1"
     transform="translate(-15.188743,-62.277789)"><path
       style="fill:#000000"
       d="m 173.27702,146.73822 c -1.05576,-0.55951 -1.46193,-1.16647 -1.47184,-2.19945 -0.0124,-1.28772 0.29166,-1.71892 3.67195,-5.20812 4.07188,-4.20308 6.54866,-7.12965 7.32592,-8.65631 1.13532,-2.22994 0.70052,-3.89892 -1.16013,-4.45319 -1.22001,-0.36343 -2.19597,-0.0378 -2.8766,0.9599 -1.24363,1.82289 -1.83257,2.22772 -3.24086,2.22772 -3.61289,0 -4.2938,-3.96936 -1.19686,-6.97707 1.76742,-1.71649 3.03982,-2.14852 6.3317,-2.14987 2.65484,-0.001 3.0432,0.064 4.42237,0.74128 2.86241,1.40562 4.44118,3.97019 4.44118,7.2143 0,3.45409 -1.44391,6.3204 -5.45131,10.82142 l -2.24434,2.52077 h 2.8823 c 3.33819,0 4.4115,0.29001 4.95368,1.33847 0.59577,1.1521 0.47793,2.14663 -0.37556,3.16944 l -0.7644,0.91605 -7.23925,0.071 c -6.10502,0.0599 -7.35969,0.007 -8.00795,-0.33636 z"
       id="path6" /><path
       id="path4"
       style="display:inline;fill:#000000"
       d="M 144.54467 98.117462 C 141.55648 98.122882 140.54321 98.236988 138.34453 98.814577 C 134.01898 99.950886 130.30462 102.05975 127.31627 105.07621 C 124.24477 108.17658 122.14657 111.81595 120.98642 116.05539 C 120.12465 119.20445 119.98041 124.74089 120.67274 128.08876 C 122.57713 137.2977 129.56338 144.7731 138.06238 146.69641 C 139.08103 146.92692 140.15259 147.17273 140.44363 147.24263 C 140.73467 147.31243 142.81826 147.33249 145.07384 147.28759 C 149.95285 147.19044 152.33466 146.60039 156.43128 144.47277 C 162.65281 141.24158 166.87538 136.03958 168.65896 129.40858 C 169.16841 127.51457 169.26478 126.49148 169.26978 122.92628 C 169.27485 119.34093 169.18411 118.35552 168.67653 116.4874 C 166.18321 107.31075 159.22138 100.60987 150.03271 98.542242 C 148.76496 98.256972 146.90774 98.113462 144.54467 98.117462 z M 144.48834 107.44816 C 149.49882 107.44816 153.82799 109.89201 156.70569 114.34438 C 158.18264 116.62952 158.86431 118.92306 159.02079 122.13253 C 159.17606 125.31729 158.72319 127.55395 157.33976 130.43022 C 155.52206 134.20938 151.45795 137.38744 147.48506 138.13621 C 142.64559 139.04831 138.54805 137.78553 135.14835 134.33489 C 128.97125 128.06527 128.95393 117.79365 135.11011 111.55385 C 137.91199 108.7139 140.80325 107.44816 144.48834 107.44816 z " /><path
       style="fill:#000000"
       d="m 62.287247,245.05782 c -0.977878,-0.91347 -1.014863,-1.43616 -0.421771,-5.96052 0.940378,-7.17361 3.978053,-14.23384 9.115052,-21.18541 2.800709,-3.79001 4.500363,-6.40676 5.374009,-8.2737 l 0.811886,-1.73496 -0.628413,-1.84584 c -1.265684,-3.7177 -5.688498,-10.87484 -8.983676,-14.53768 -1.982327,-2.20351 -2.378718,-2.07794 -4.059847,1.2861 -1.897019,3.79604 -2.735879,7.1552 -3.744924,14.9963 -1.168152,9.07749 -2.293006,11.40074 -9.131963,18.86092 -5.254499,5.73181 -6.506726,7.42502 -8.854945,11.97333 -1.324754,2.56594 -1.763773,2.95574 -3.328938,2.95574 -0.47318,0 -1.095404,-0.28865 -1.606355,-0.74518 -1.46179,-1.30611 -1.073192,-3.13202 1.709182,-8.03097 1.678377,-2.95512 3.603017,-5.50689 7.0465,-9.34255 3.199036,-3.56336 4.496501,-5.4169 5.438498,-7.76934 0.996884,-2.48951 1.457482,-5.04354 1.632895,-9.05445 0.168849,-3.86083 -6.47e-4,-5.53876 -0.559499,-5.53876 -0.618904,0 -5.647471,2.33783 -7.763244,3.60921 -6.044284,3.63204 -8.968869,7.1747 -12.443821,15.07368 -0.766753,1.74292 -1.353719,2.25157 -2.784335,2.41282 -2.145131,0.24179 -3.310949,-1.07955 -2.833239,-3.21119 1.401132,-6.25213 5.982669,-12.87181 11.895554,-17.18741 2.786423,-2.03371 4.392951,-2.98976 9.175709,-5.46051 6.46713,-3.34087 6.97442,-3.9154 7.543099,-8.54284 0.46815,-3.80942 0.502225,-3.79427 -5.711284,-2.53927 -10.874629,2.19644 -18.55464,6.97655 -22.897443,14.25158 -1.501571,2.51542 -2.26194,3.18143 -3.632156,3.18143 -1.546739,0 -2.903443,-1.72242 -2.568166,-3.26046 0.605775,-2.77889 3.565377,-7.33346 6.994072,-10.76327 4.087937,-4.08925 8.505291,-6.7999 14.912836,-9.15106 5.376821,-1.97294 6.703103,-2.68812 8.787911,-4.73875 3.069926,-3.0196 4.422678,-6.35609 4.88093,-12.03854 0.332826,-4.12715 0.319338,-13.3942 -0.02128,-14.62073 -0.456721,-1.6446 -0.742783,-1.71571 -7.526022,-1.87081 -6.546921,-0.1497 -9.237291,-0.53402 -13.478726,-1.92545 -8.425635,-2.76407 -15.231545,-9.41967 -18.027293,-17.62917 -2.220618,-6.52067 -1.778052,-15.57402 1.052711,-21.5348 1.2831,-2.70185 2.506336,-4.52276 4.393395,-6.540038 3.222972,-3.44536 6.332519,-5.37208 11.835486,-7.33343 4.129516,-1.47183 4.609481,-1.85372 5.227825,-4.15956 2.264949,-8.446133 5.586404,-13.706493 11.57852,-18.337503 9.741482,-7.52872 22.337806,-8.60399 33.533707,-2.86257 6.022071,3.08821 10.186031,7.1835 14.553231,14.31324 0.99432,1.62328 1.564235,1.96324 4.386365,2.61646 6.33362,1.466003 10.47904,3.474453 13.61159,6.594783 3.08457,3.07253 5.1632,7.67567 4.66259,10.3253 -0.0956,0.505718 -0.95199,2.110118 -1.90321,3.565318 -4.69983,7.19002 -6.51993,13.48509 -6.11418,21.14675 0.16397,3.09615 0.67174,5.77542 2.04626,10.79726 0.63203,2.30913 0.63211,2.31131 0.11992,3.26239 -1.7143,3.18327 -11.26252,8.06058 -15.752155,8.04633 l -0.92604,-0.003 1.389715,-0.76619 c 4.79495,-2.64362 9.14562,-7.25465 10.11634,-10.72173 0.32328,-1.15463 0.30819,-1.2578 -0.2747,-1.87826 -1.20316,-1.2807 -5.32746,-2.74346 -6.73748,-2.38957 -0.37203,0.0934 -1.21924,0.87865 -1.95649,1.81345 -1.975795,2.50521 -4.350815,4.1465 -7.035295,4.86184 -1.71662,0.45743 -5.712111,0.45192 -7.447971,-0.0103 -4.21743,-1.12293 -7.613568,-4.48942 -9.288125,-9.20704 -0.927754,-2.6137 -1.153269,-7.75002 -0.466049,-10.61473 0.898672,-3.74616 3.313904,-7.28056 6.354204,-9.29859 3.74018,-2.48259 8.690491,-2.83491 12.825001,-0.91277 1.31169,0.60981 2.22075,1.32782 3.884275,3.06794 l 2.1718,2.2718 1.1511,-0.12974 c 1.68663,-0.19011 6.238,-2.44148 6.61692,-3.27312 0.63921,-1.40291 -2.11353,-5.27432 -5.58208,-7.85054 -6.859085,-5.094488 -17.038636,-5.961568 -24.771166,-2.109968 -3.945751,1.965388 -7.115083,4.941228 -9.775379,9.178588 -2.949181,4.6975 -4.003493,8.84771 -3.766738,14.82746 0.212364,5.36369 1.367898,9.40958 3.806148,13.32651 2.328434,3.74052 6.360976,7.24501 10.160029,8.8296 l 1.42803,0.59563 -1.19063,0.18004 c -0.65484,0.099 -2.047187,0.18886 -3.094098,0.19965 -1.587952,0.0164 -2.020796,0.12052 -2.611245,0.62841 l -0.70777,0.60879 0.04334,6.99798 c 0.05993,9.67751 0.48528,12.49173 2.443255,16.16527 1.795762,3.36919 4.926018,5.60134 9.647298,6.87937 2.38263,0.64497 3.52101,0.67536 32.246936,0.86069 17.14654,0.11062 18.59919,0.18767 25.26771,1.34025 12.59696,2.17723 25.45702,7.60823 31.9306,13.48477 2.88828,2.6219 3.43237,4.25056 1.92392,5.75901 -0.73037,0.73037 -0.92823,0.79413 -2.11133,0.68045 -1.11808,-0.10743 -1.65743,-0.393 -3.75816,-1.98986 -6.99145,-5.31451 -13.6272,-8.24664 -22.89428,-10.11628 -3.91436,-0.78972 -10.8074,-1.71005 -11.57235,-1.54509 -0.49956,0.10773 4.80765,6.19574 8.49664,9.74668 4.28323,4.12293 7.22592,6.10354 12.59404,8.47655 1.62648,0.71899 3.05501,1.40504 3.17453,1.52455 0.54282,0.54282 0.67503,1.84192 0.27213,2.67383 -1.06506,2.19911 -3.82812,2.12758 -8.93385,-0.23127 -4.41073,-2.03776 -8.74933,-5.44906 -15.60418,-12.26904 -2.47385,-2.46128 -5.21229,-5.07606 -6.08542,-5.81063 -2.68172,-2.25616 -6.0526,-3.50854 -11.1125,-4.12861 -2.65536,-0.3254 -17.85998,-0.40617 -17.8583,-0.0949 5.8e-4,0.10914 1.57816,1.15073 3.50573,2.31464 4.66774,2.8185 6.87669,4.51547 11.21449,8.61525 4.91743,4.64761 9.29006,7.48021 15.69908,10.1699 5.69339,2.38936 10.48984,5.54925 14.4395,9.51274 4.1101,4.12448 4.90999,5.97863 3.28166,7.60695 -0.72026,0.72026 -0.93382,0.79202 -1.99956,0.6719 -1.11071,-0.1252 -1.43444,-0.37083 -4.68372,-3.55377 -4.79171,-4.69388 -7.67533,-6.6421 -14.21948,-9.60686 -3.5437,-1.60544 -8.87276,-3.70419 -9.40553,-3.70419 -0.53117,0 -0.46468,0.9047 0.27496,3.74135 1.54525,5.92625 4.35633,11.12061 8.42791,15.57323 2.32438,2.54191 2.69376,3.50488 1.91907,5.00296 -0.50127,0.96935 -1.70206,1.46124 -2.98131,1.22125 -2.17308,-0.40767 -7.60131,-7.23139 -10.22025,-12.84765 -1.58916,-3.40792 -2.6693,-6.90766 -3.87671,-12.56087 -1.64594,-7.70645 -1.89151,-8.13477 -6.21754,-10.84465 -3.41341,-2.13821 -5.82263,-3.21762 -12.700005,-5.69 -6.210951,-2.2328 -8.206381,-3.05559 -13.705241,-5.65113 -4.130637,-1.94973 -5.953062,-2.53241 -6.284046,-2.0092 -0.462631,0.73132 -0.245953,1.59545 1.043012,4.15962 1.680749,3.34356 3.377612,6.20571 5.526524,9.32176 4.54264,6.58709 8.11759,10.21802 14.552451,14.78033 5.518565,3.91264 8.581765,6.43228 11.003725,9.05112 5.7667,6.23547 11.2215,16.03815 10.64237,19.12514 -0.3005,1.60182 -2.2727,2.2573 -3.89979,1.29616 -0.57773,-0.34127 -1.16289,-1.25643 -2.24162,-3.50573 -3.38871,-7.06595 -7.62293,-12.60326 -12.384385,-16.19569 l -2.13633,-1.61183 -0.2112,2.35473 c -0.3944,4.39725 -1.20269,7.0345 -4.37081,14.26097 -0.57417,1.30969 -1.37466,3.33375 -1.77886,4.49792 -0.804921,2.31833 -1.409981,3.1749 -2.422111,3.42892 -1.57985,0.39652 -3.52015,-1.01768 -3.52015,-2.56568 0,-1.08247 1.28614,-4.82151 3.15556,-9.17382 2.35463,-5.48196 2.800481,-7.09713 2.781901,-10.07796 -0.0131,-2.10801 -0.12364,-2.74832 -0.684911,-3.96875 -1.11391,-2.42207 -4.53255,-5.76181 -6.36999,-6.22298 -0.93584,-0.23488 -1.93039,0.70405 -5.236518,4.94369 -6.397687,8.20412 -9.175072,13.8249 -10.622772,21.49801 -0.820108,4.34674 -0.991213,4.91703 -1.682752,5.60857 -0.92788,0.92788 -2.461414,0.86868 -3.537532,-0.13657 z"
       id="path3" /></g></svg>
