<?xml version="1.0" encoding="UTF-8" standalone="no"?>
<!-- Created with Inkscape (http://www.inkscape.org/) -->

<svg
   version="1.1"
   id="svg1"
   width="512"
   height="512"
   viewBox="0 0 512 512"
   sodipodi:docname="industry_biomass.svg"
   inkscape:version="1.3.2 (091e20e, 2023-11-25, custom)"
   xmlns:inkscape="http://www.inkscape.org/namespaces/inkscape"
   xmlns:sodipodi="http://sodipodi.sourceforge.net/DTD/sodipodi-0.dtd"
   xmlns="http://www.w3.org/2000/svg"
   xmlns:svg="http://www.w3.org/2000/svg">
  <defs
     id="defs1" />
  <sodipodi:namedview
     id="namedview1"
     pagecolor="#ffffff"
     bordercolor="#000000"
     borderopacity="0.25"
     inkscape:showpageshadow="2"
     inkscape:pageopacity="0.0"
     inkscape:pagecheckerboard="0"
     inkscape:deskcolor="#d1d1d1"
     inkscape:zoom="3.5761719"
     inkscape:cx="256"
     inkscape:cy="256"
     inkscape:window-width="3840"
     inkscape:window-height="2066"
     inkscape:window-x="-11"
     inkscape:window-y="-11"
     inkscape:window-maximized="1"
     inkscape:current-layer="g1" />
  <g
     inkscape:groupmode="layer"
     inkscape:label="Image"
     id="g1">
    <path
       style="fill:#000000"
       d="M 66.200159,510.38419 C 32.849183,507.90219 12.227757,496.11939 3.7957215,474.72715 1.2462175,468.259 -0.61199647,454.52763 0.18783853,448.06652 1.1233735,440.50921 6.2894675,423.84115 12.765751,407.48471 27.263007,370.87058 45.195893,332.19874 102.88228,213.15052 c 31.52648,-65.06164 46.66515,-97.26546 51.91751,-110.44184 l 2.90037,-7.276031 v -28.47397 -28.47397 h -12.03324 c -10.74195,0 -12.53941,-0.25849 -16.75,-2.40884 -8.89101,-4.54061 -12.79201,-15.49197 -8.86572,-24.8889 1.62231,-3.8827203 7.63462,-9.3792363 11.4173,-10.43781125 3.56936,-0.998877 244.89396,-0.998877 248.46332,0 3.78268,1.05857495 9.79499,6.55509095 11.4173,10.43781125 3.4541,8.26683 0.26496,19.33993 -6.94495,24.11372 -3.79928,2.51557 -4.88999,2.70587 -17.37885,3.03213 l -13.32516,0.34812 v 28.37585 28.37586 l 2.90037,7.276031 c 5.25236,13.17638 20.39103,45.3802 51.91751,110.44184 69.11803,142.63985 89.91781,188.7396 98.96156,219.33419 4.02458,13.61496 4.60887,18.86034 3.22598,28.96042 -4.18578,30.57118 -25.13636,45.82709 -67.22401,48.95155 -17.37153,1.28961 -359.937321,1.27827 -377.281411,-0.0125 z M 441.02985,471.45993 c 21.96344,-1.78349 29.74459,-5.61925 31.209,-15.38467 0.54885,-3.66001 -0.10243,-6.64695 -3.87278,-17.76152 -10.85986,-32.01362 -31.38032,-76.87584 -99.40861,-217.32903 -30.94376,-63.88737 -47.34924,-99.16716 -51.3837,-110.5 -2.20762,-6.20122 -2.32917,-8.00539 -2.64446,-39.250001 l -0.33047,-32.75 h -58.89867 -58.89867 l -0.33047,32.75 c -0.31529,31.244611 -0.43684,33.048781 -2.64446,39.250001 -4.03446,11.33284 -20.43994,46.61263 -51.3837,110.5 -68.028291,140.45319 -88.548751,185.31541 -99.408607,217.32903 -5.125,15.10792 -5.251369,19.73896 -0.686652,25.16382 3.30552,3.92839 12.817318,6.83079 25.921678,7.90968 15.02976,1.2374 357.594611,1.3042 372.760571,0.0727 z M 242.5526,430.76235 c -4.40722,-0.46658 -4.82997,-1.58892 -4.81299,-12.77764 0.064,-42.12858 13.26302,-77.1491 38.48215,-102.10314 19.47638,-19.27165 46.97382,-33.37872 75.81943,-38.89779 11.92266,-2.28119 12.4389,-2.1835 14.53794,2.75093 4.43208,10.41892 5.62221,18.45072 5.59371,37.75 -0.0248,16.813 -0.2783,19.49877 -2.77957,29.45276 -13.99677,55.70102 -52.47961,85.13455 -110.32145,84.37914 -7.07941,-0.0925 -14.51306,-0.34188 -16.51922,-0.55426 z m -34.39571,-6.16484 c -29.10281,-9.94533 -50.84092,-33.18737 -61.87163,-66.15219 -5.31906,-15.89577 -6.89202,-27.48004 -6.24073,-45.96061 0.54543,-15.47675 2.11181,-24.1716 6.01082,-33.36557 l 1.63933,-3.86556 5.75274,0.68064 c 30.35219,3.59114 68.28725,22.72508 85.89349,43.32353 l 4.14075,4.84448 -2.44466,3.94124 c -15.1073,24.35576 -23.28291,56.31695 -23.32652,91.19124 -0.006,4.5375 -0.34782,8.21882 -0.76032,8.18072 -0.4125,-0.0381 -4.36947,-1.30617 -8.79327,-2.81792 z m 43.96296,-121.24568 c -9.01587,-9.34957 -27.23962,-22.72183 -39.16969,-28.74202 -3.4375,-1.73464 -6.25,-3.68754 -6.25,-4.33977 0,-2.867 11.62291,-24.05726 17.51694,-31.93593 7.96436,-10.64613 22.09316,-24.08964 30.58276,-29.0994 3.49514,-2.0625 6.81503,-3.74151 7.37755,-3.73113 3.06246,0.0565 19.70238,23.3605 26.82197,37.56385 5.39412,10.76107 12.30729,30.71511 10.81387,31.21292 -1.93258,0.64419 -18.60319,11.35596 -24.01462,15.43068 -2.97083,2.237 -8.63197,7.13589 -12.58031,10.88642 l -7.17878,6.81914 z"
       id="path1" />
  </g>
</svg>
