<?xml version="1.0" encoding="UTF-8" standalone="no"?>
<!-- Uploaded to: SVG Repo, www.svgrepo.com, Generator: SVG Repo Mixer Tools -->

<svg
   fill="#000000"
   height="800px"
   width="800px"
   version="1.1"
   id="Capa_1"
   viewBox="0 0 379 379"
   xml:space="preserve"
   sodipodi:docname="uE024-viewer-3d-trees.svg"
   inkscape:version="1.3.2 (091e20e, 2023-11-25, custom)"
   xmlns:inkscape="http://www.inkscape.org/namespaces/inkscape"
   xmlns:sodipodi="http://sodipodi.sourceforge.net/DTD/sodipodi-0.dtd"
   xmlns="http://www.w3.org/2000/svg"
   xmlns:svg="http://www.w3.org/2000/svg"><defs
   id="defs1" /><sodipodi:namedview
   id="namedview1"
   pagecolor="#ffffff"
   bordercolor="#000000"
   borderopacity="0.25"
   inkscape:showpageshadow="2"
   inkscape:pageopacity="0.0"
   inkscape:pagecheckerboard="0"
   inkscape:deskcolor="#d1d1d1"
   inkscape:zoom="1.7447717"
   inkscape:cx="400.05234"
   inkscape:cy="399.76577"
   inkscape:window-width="3840"
   inkscape:window-height="2066"
   inkscape:window-x="-11"
   inkscape:window-y="-11"
   inkscape:window-maximized="1"
   inkscape:current-layer="Capa_1" />

<path
   d="m 110.96973,303.76466 q 16.91192,0 30.73243,-3.49221 14.00235,-3.69763 22.3674,-11.70918 8.36504,-8.21697 8.36504,-21.98039 0,-11.70918 -5.81916,-20.95328 -5.81915,-9.24408 -17.09378,-14.58511 -11.27461,-5.34104 -27.641,-5.34104 -15.45715,0 -26.91363,6.57359 -11.274613,6.57356 -17.457482,17.66648 -6.182855,11.09291 -6.182855,24.85633 h 36.551597 q 0,-6.36815 3.81884,-10.27121 3.81882,-3.90307 10.00167,-3.90307 4.00068,0 6.36471,1.23255 2.54588,1.02713 3.81882,3.08137 1.27294,2.05424 1.27294,4.72474 0,3.08138 -1.63664,5.95731 -1.63663,2.87594 -4.72806,5.13562 -2.90958,2.25966 -7.0921,3.49221 -4.00068,1.23254 -8.72874,1.23254 z m 9.09244,72.92561 q 18.18488,0 30.55058,-5.75189 12.54757,-5.75187 18.91227,-15.61223 6.54656,-10.06579 6.54656,-22.8021 0,-11.0929 -4.72807,-18.89902 -4.54621,-8.01155 -13.27496,-13.14716 -8.54689,-5.1356 -20.54891,-7.39526 -11.82016,-2.4651 -26.54991,-2.4651 v 21.36412 q 7.4558,0 12.36571,1.43797 5.09176,1.23254 8.00134,3.69764 2.90959,2.25966 4.18253,5.34103 1.27294,2.87594 1.27294,5.9573 0,5.13561 -2.00033,8.21696 -2.00034,2.87594 -5.45547,4.10849 -3.27328,1.02713 -7.45579,1.02713 -4.00068,0 -8.00136,-1.84883 -3.81882,-1.84882 -6.3647,-6.16272 -2.36403,-4.31391 -2.36403,-11.50376 H 65.871231 q 0,10.27121 3.636975,20.13158 3.636975,9.65494 10.547236,17.46105 6.910246,7.80613 16.91192,12.32546 10.183538,4.51934 23.094808,4.51934 z m 72.13719,-147.90544 v 143.79695 h 41.64336 V 228.78483 Z m 50.0084,143.79695 q 22.18556,0 38.0064,-8.62782 16.00268,-8.62781 24.36772,-24.65091 8.54689,-16.22852 8.54689,-38.61975 0,-22.59666 -8.54689,-38.61976 -8.36504,-16.02308 -24.36772,-24.65091 -15.82084,-8.6278 -38.0064,-8.6278 h -22.36739 v 39.0306 h 20.54891 q 5.27361,0 10.72908,1.02711 5.45546,1.02713 10.00167,4.31392 4.54623,3.28678 7.27395,9.86036 2.90958,6.57358 2.90958,17.66648 0,11.09291 -2.90958,17.66649 -2.72772,6.57357 -7.27395,9.86036 -4.54621,3.28679 -10.00167,4.3139 -5.45547,1.02713 -10.72908,1.02713 h -20.54891 v 39.0306 z"
   id="text7"
   style="font-size:126.333px;font-family:Jost;-inkscape-font-specification:'Jost, @wght=900';font-variation-settings:'wght' 900;letter-spacing:-0.165812px;stroke-width:0.724792;stroke-linejoin:bevel;paint-order:markers stroke fill"
   aria-label="3D" /><g
   style="display:inline;fill:#000000"
   id="g7"
   transform="matrix(0.65610983,0,0,0.4700588,21.535884,0.6859102)"><g
     id="g2">
	<g
   id="g1"
   style="display:inline">
		<path
   d="m 493.9,419.557 h -37.646 c 0.421,-1.521 0.663,-3.117 0.663,-4.772 V 345.546 C 491.062,321.564 512,280.756 512,237.26 c 0,-46.044 -23.454,-89.087 -61.21,-112.335 -5.753,-3.543 -13.011,-3.543 -18.765,0 -1.627,1.002 -3.217,2.054 -4.791,3.128 -3.625,-19.897 -10.398,-39.066 -20.123,-56.609 -14.8,-26.697 -36,-49.045 -61.306,-64.626 -5.753,-3.543 -13.011,-3.543 -18.765,0 -25.306,15.582 -46.504,37.929 -61.306,64.626 -9.323,16.818 -15.935,35.128 -19.661,54.143 -0.903,0.569 -1.804,1.141 -2.691,1.732 -3.658,-19.634 -10.389,-38.547 -19.995,-55.875 -14.8,-26.697 -36,-49.045 -61.306,-64.626 -5.753,-3.543 -13.011,-3.543 -18.765,0 -25.302,15.582 -46.502,37.93 -61.302,64.627 -9.184,16.565 -15.73,34.583 -19.485,53.291 -0.111,0.064 -0.224,0.122 -0.334,0.19 -37.755,23.247 -61.21,66.291 -61.21,112.335 0,42.471 19.968,82.378 52.697,106.561 v 70.964 c 0,1.655 0.242,3.251 0.663,4.772 H 17.895 C 8.012,419.558 0,427.57 0,437.453 c 0,9.883 8.012,17.895 17.895,17.895 H 493.9 c 9.883,0 17.895,-8.012 17.895,-17.895 0,-9.883 -8.012,-17.896 -17.895,-17.896 z M 71.58,312.445 C 49.877,294.75 36.778,266.913 36.778,237.261 c 0,-29.654 13.099,-57.492 34.802,-75.185 21.703,17.695 34.802,45.532 34.802,75.185 0,29.653 -13.098,57.491 -34.802,75.184 z m 17.231,107.113 c 0.421,-1.522 0.663,-3.117 0.663,-4.773 v -70.963 c 14.368,-10.616 26.272,-24.262 35.11,-39.828 2.936,2.411 5.947,4.724 9.031,6.931 v 103.861 c 0,1.655 0.242,3.251 0.663,4.772 z m 63.892,-138.996 c -5.009,-3.708 -9.736,-7.766 -14.182,-12.114 2.386,-10.1 3.651,-20.561 3.651,-31.187 0,-39.223 -17.03,-76.26 -45.413,-100.746 6.36,-37.416 26.445,-71.042 55.944,-92.873 35.332,26.149 57.156,69.216 58.067,115.453 -15.847,22.236 -24.868,49.623 -24.868,78.166 0,2.61 0.086,5.209 0.235,7.797 -9.026,13.701 -20.29,25.778 -33.434,35.504 z m 16.039,138.995 c 0.421,-1.521 0.663,-3.116 0.663,-4.772 V 312.582 c 9.725,-6.709 18.774,-14.434 26.988,-23.053 8.832,21.129 22.915,39.696 41.013,53.409 v 71.847 c 0,1.655 0.242,3.251 0.663,4.772 z m 87.752,-107.112 c -21.703,-17.695 -34.802,-45.532 -34.802,-75.184 0,-29.654 13.099,-57.492 34.802,-75.185 21.703,17.695 34.802,45.532 34.802,75.185 0,29.653 -13.098,57.491 -34.802,75.184 z m 16.039,107.111 c 0.421,-1.52 0.663,-3.115 0.663,-4.771 v -70.081 c 14.698,-10.588 26.879,-24.322 35.923,-40.04 2.677,2.171 5.419,4.258 8.217,6.26 v 103.861 c 0,1.655 0.242,3.251 0.663,4.772 h -45.466 z m 63.892,-138.993 c -4.646,-3.438 -9.054,-7.175 -13.216,-11.166 2.534,-10.392 3.877,-21.177 3.877,-32.136 0,-39.702 -17.449,-77.159 -46.456,-101.632 6.524,-37.062 26.53,-70.328 55.795,-91.987 35.759,26.465 57.684,70.26 58.092,117.131 -15.118,21.93 -23.7,48.657 -23.7,76.489 0,2.039 0.062,4.07 0.154,6.096 -9.206,14.405 -20.86,27.076 -34.546,37.205 z m 16.038,138.994 c 0.421,-1.521 0.663,-3.117 0.663,-4.772 V 312.582 c 10.055,-6.936 19.384,-14.964 27.817,-23.936 8.615,21.025 22.41,39.562 40.184,53.375 v 72.764 c 0,1.655 0.242,3.251 0.663,4.772 z m 88.945,-107.112 c -21.703,-17.695 -34.802,-45.532 -34.802,-75.184 0,-29.654 13.099,-57.492 34.802,-75.185 21.703,17.695 34.802,45.532 34.802,75.185 0,29.653 -13.098,57.491 -34.802,75.184 z"
   id="path1-2" />
	</g>
</g></g></svg>
