<?xml version="1.0" encoding="iso-8859-1"?>
<!-- Uploaded to: SVG Repo, www.svgrepo.com, Generator: SVG Repo Mixer Tools -->
<!DOCTYPE svg PUBLIC "-//W3C//DTD SVG 1.1//EN" "http://www.w3.org/Graphics/SVG/1.1/DTD/svg11.dtd">
<svg fill="#000000" version="1.1" id="Capa_1" xmlns="http://www.w3.org/2000/svg" xmlns:xlink="http://www.w3.org/1999/xlink" 
	 width="800px" height="800px" viewBox="0 0 72.959 72.959"
	 xml:space="preserve">
<g>
	<path d="M55.733,32.098c3.168-1.861,4.227-5.94,2.36-9.112c-1.856-3.172-5.938-4.239-9.105-2.38
		c-2.192,1.287-3.282,3.637-3.193,6.007l-3.919,2.296L29.846,8.405c-12.803,7.51-17.095,23.979-9.577,36.777
		c0.212,0.372,0.508,0.662,0.742,1.024L0,67.18l35.584,0.043V57.199c6.944,2.133,14.7,1.533,21.46-2.432L45.015,34.26l3.921-2.298
		C50.964,33.19,53.546,33.377,55.733,32.098z M30.064,61.7l-16.757-0.019l11.191-11.173c1.681,1.684,3.553,3.091,5.57,4.25
		L30.064,61.7L30.064,61.7z M59.365,38.285l-1.395-2.378c5.265-3.087,7.033-9.892,3.938-15.163
		c-3.084-5.273-9.896-7.047-15.155-3.958l-1.398-2.375c6.583-3.861,15.073-1.639,18.931,4.941
		C68.149,25.935,65.941,34.429,59.365,38.285z M62.798,44.134l-1.398-2.38c8.488-4.98,11.339-15.942,6.353-24.438
		c-4.983-8.495-15.944-11.354-24.435-6.377l-1.389-2.378c9.788-5.746,22.443-2.448,28.196,7.356
		C75.88,25.728,72.591,38.383,62.798,44.134z"/>
</g>
</svg>