<?xml version="1.0" encoding="iso-8859-1"?>
<!-- Uploaded to: SVG Repo, www.svgrepo.com, Generator: SVG Repo Mixer Tools -->
<!DOCTYPE svg PUBLIC "-//W3C//DTD SVG 1.1//EN" "http://www.w3.org/Graphics/SVG/1.1/DTD/svg11.dtd">
<svg fill="#000000" height="800px" width="800px" version="1.1" id="Capa_1" xmlns="http://www.w3.org/2000/svg" xmlns:xlink="http://www.w3.org/1999/xlink" 
	 viewBox="0 0 297.131 297.131" xml:space="preserve">
<g>
	<g>
		<path d="M196.826,68.171c17.691,0.002,32.084,14.405,32.084,32.108c0,5.54,4.492,10.033,10.033,10.033
			c5.54,0,10.033-4.493,10.033-10.033c0-28.768-23.394-52.173-52.148-52.175h-0.001c-5.54,0-10.033,4.491-10.033,10.032
			C186.794,63.679,191.286,68.171,196.826,68.171z"/>
		<path d="M196.827,34.094c36.476,0.002,66.15,29.692,66.15,66.186c0,5.54,4.492,10.033,10.033,10.033
			c5.541,0,10.033-4.493,10.033-10.033c0-47.558-38.677-86.25-86.217-86.252c-5.54,0-10.033,4.491-10.033,10.033
			C186.794,29.601,191.286,34.094,196.827,34.094z"/>
	</g>
	<g>
		<path d="M187.387,160.099c13.264-13.271,13.264-34.984,0-48.254l-2.119-2.12c-6.631-6.635-15.374-9.952-24.115-9.952
			c-8.743,0-17.484,3.316-24.116,9.953l-27.294,27.307c-13.264,13.271-13.264,34.984,0,48.254l2.12,2.12
			c6.631,6.635,15.374,9.952,24.114,9.952c8.744,0,17.485-3.316,24.117-9.953L187.387,160.099z"/>
		<path d="M98.388,125.684l27.295-27.307c7.865-7.869,17.917-12.782,28.811-14.212l-8.862-26.783
			c-0.492-1.485-1.323-2.834-2.43-3.94L92.722,2.94C90.841,1.058,88.287,0,85.626,0c-2.662,0-5.215,1.059-7.097,2.94L3.001,78.505
			c-3.915,3.918-3.915,10.269,0.002,14.186l50.48,50.501c1.106,1.107,2.456,1.938,3.941,2.432l26.752,8.861
			C85.579,143.943,90.31,133.767,98.388,125.684z"/>
		<path d="M294.128,204.439l-50.481-50.499c-1.107-1.106-2.456-1.938-3.941-2.43l-26.753-8.864
			c-1.403,10.541-6.134,20.718-14.212,28.8l-27.294,27.308c-7.865,7.869-17.916,12.782-28.809,14.212l8.862,26.781
			c0.492,1.484,1.323,2.834,2.429,3.941l50.478,50.503c1.882,1.882,4.435,2.94,7.097,2.94s5.215-1.058,7.096-2.94l75.529-75.564
			C298.045,214.708,298.045,208.357,294.128,204.439z"/>
	</g>
</g>
</svg>