<?xml version="1.0" encoding="iso-8859-1"?>
<!-- Uploaded to: SVG Repo, www.svgrepo.com, Generator: SVG Repo Mixer Tools -->
<svg height="800px" width="800px" version="1.1" id="Capa_1" xmlns="http://www.w3.org/2000/svg" xmlns:xlink="http://www.w3.org/1999/xlink" 
	 viewBox="0 0 26 26" xml:space="preserve">
<g>
	<path style="fill:#030104;" d="M15.859,26H4.179c0-1.69,1.146-3.163,2.84-3.939c1.594,0.891,3.34,1.352,5.165,1.352
		c0.683,0,1.344-0.066,1.98-0.181C15.093,23.75,15.859,24.956,15.859,26z M15.956,13.593c1.111,1.874,1.43,3.547,0.655,4.321
		c-1.193,1.193-4.521-0.199-7.431-3.109c-2.912-2.911-4.304-6.237-3.109-7.432c0.73-0.731,2.266-0.49,4.015,0.478
		c0.409,0.226,1.571-0.273,1.905-0.7C8.936,5.065,5.881,4.46,4.441,5.9c-1.862,1.862-4.637,7.493,0.756,12.887
		c4.933,4.934,11.023,2.619,12.886,0.757c1.485-1.485,0.801-4.687-1.444-7.832C16.217,12.053,15.722,13.199,15.956,13.593z
		 M8.63,10.591c0.05,0.455,0.463,0.781,0.914,0.731l2.698-0.3c0.17,0.283,0.405,0.518,0.688,0.688l-0.3,2.698
		c-0.05,0.454,0.277,0.863,0.731,0.914c0.031,0.004,0.062,0.005,0.092,0.005c0.416,0,0.774-0.312,0.821-0.735l0.3-2.701
		c0.798-0.263,1.378-1.005,1.378-1.891c0-1.105-0.895-2-2-2c-0.886,0-1.628,0.58-1.891,1.378l-2.7,0.3
		C8.907,9.728,8.579,10.137,8.63,10.591z M13.952,4c-0.552,0-1,0.448-1,1s0.448,1,1,1c2.916,0,4,1.084,4,4c0,0.552,0.447,1,1,1
		s1-0.448,1-1C19.952,5.962,17.989,4,13.952,4z M13.952,0c-0.552,0-1,0.448-1,1s0.448,1,1,1c4.411,0,8,3.589,8,8
		c0,0.552,0.447,1,1,1s1-0.448,1-1C23.952,4.486,19.466,0,13.952,0z"/>
</g>
</svg>