<?xml version="1.0" encoding="iso-8859-1"?>
<!-- Uploaded to: SVG Repo, www.svgrepo.com, Generator: SVG Repo Mixer Tools -->
<svg fill="#000000" height="800px" width="800px" version="1.1" id="Layer_1" xmlns="http://www.w3.org/2000/svg" xmlns:xlink="http://www.w3.org/1999/xlink" 
	 viewBox="0 0 512 512" xml:space="preserve">
<g>
	<g>
		<path d="M224.204,401.901c37.263,0,74.525-14.184,102.891-42.551l11.806-11.805l-91.086-91.086l19.055-19.058
			c6.052,2.696,12.56,4.055,19.072,4.054c11.972-0.001,23.949-4.559,33.064-13.674c18.232-18.231,18.232-47.896,0-66.127
			c-18.232-18.231-47.897-18.231-66.127,0c-8.832,8.832-13.696,20.574-13.696,33.064c0,6.689,1.408,13.16,4.06,19.088
			l-19.041,19.041l-91.086-91.086l-11.805,11.806c-56.735,56.734-56.735,149.048,0,205.783c2.353,2.353,4.772,4.598,7.241,6.755
			v112.505H31.339V512h227.819v-33.392h-97.214v-90.632C181.59,397.253,202.894,401.901,224.204,401.901z"/>
	</g>
</g>
<g>
	<g>
		<path d="M436.085,44.574C405.069,13.557,362.132-2.564,318.276,0.333l2.204,33.319c34.246-2.265,67.78,10.321,91.993,34.533
			s36.801,57.743,34.535,91.993l33.319,2.204C483.228,118.531,467.102,75.59,436.085,44.574z"/>
	</g>
</g>
<g>
	<g>
		<path d="M399.834,80.825c-21.298-21.299-50.788-32.37-80.895-30.382l2.203,33.319c20.513-1.358,40.585,6.18,55.081,20.675
			c14.495,14.495,22.031,34.572,20.674,55.08l33.319,2.204C432.208,131.61,421.134,102.126,399.834,80.825z"/>
	</g>
</g>
<g>
	<g>
		<path d="M364.136,116.522c-11.33-11.33-27.007-17.223-43.027-16.163l2.203,33.319c6.414-0.422,12.687,1.929,17.213,6.456
			c4.527,4.527,6.88,10.801,6.456,17.213l33.319,2.203C381.358,143.535,375.467,127.853,364.136,116.522z"/>
	</g>
</g>
</svg>