<?xml version="1.0" encoding="UTF-8" standalone="no"?>
<svg
   version="1.1"
   id="Capa_1"
   viewBox="0 0 504.895 504.895"
   xml:space="preserve"
   width="512"
   height="512"
   sodipodi:docname="log-svgrepo-com.svg"
   inkscape:version="1.3.2 (091e20e, 2023-11-25, custom)"
   xmlns:inkscape="http://www.inkscape.org/namespaces/inkscape"
   xmlns:sodipodi="http://sodipodi.sourceforge.net/DTD/sodipodi-0.dtd"
   xmlns="http://www.w3.org/2000/svg"
   xmlns:svg="http://www.w3.org/2000/svg"><defs
   id="defs6" /><sodipodi:namedview
   id="namedview6"
   pagecolor="#ffffff"
   bordercolor="#000000"
   borderopacity="0.25"
   inkscape:showpageshadow="2"
   inkscape:pageopacity="0.0"
   inkscape:pagecheckerboard="0"
   inkscape:deskcolor="#d1d1d1"
   inkscape:zoom="2.5214844"
   inkscape:cx="255.8017"
   inkscape:cy="256"
   inkscape:window-width="2880"
   inkscape:window-height="1526"
   inkscape:window-x="5749"
   inkscape:window-y="-11"
   inkscape:window-maximized="1"
   inkscape:current-layer="Capa_1" />
<g
   id="g6">
	<path
   style="display:none;fill:#faba45"
   d="M 392.139,169.814 H 287.295 l -30.847,-45.246 h -33.27 l 0.103,45.246 H 112.756 C 54.624,169.814 7.5,216.938 7.5,275.07 c 0,58.131 47.124,105.256 105.256,105.256 h 279.383 c 58.132,0 105.256,-47.125 105.256,-105.256 0,-58.132 -47.124,-105.256 -105.256,-105.256 z"
   id="path1" />
	<circle
   style="display:none;fill:#e95b2d"
   cx="112.756"
   cy="275.07001"
   r="105.256"
   id="circle1" />
	<path
   style="display:inline;fill:#0f2639"
   d="m 392.139,162.314 h -100.88 l -30.847,-45.246 h -44.75 l 0.103,45.246 H 112.756 C 50.582,162.314 0,212.897 0,275.07 0,337.243 50.582,387.826 112.756,387.826 h 279.383 c 62.174,0 112.756,-50.582 112.756,-112.756 0,-62.174 -50.582,-112.756 -112.756,-112.756 z M 15,275.07 c 0,-53.903 43.853,-97.756 97.756,-97.756 53.902,0 97.755,43.853 97.755,97.756 0,53.903 -43.853,97.756 -97.755,97.756 C 58.853,372.826 15,328.973 15,275.07 Z m 377.139,97.756 H 168.903 c 9.713,-5.601 18.514,-12.612 26.131,-20.745 h 113.134 v -15 H 206.879 c 11.768,-17.803 18.632,-39.119 18.632,-62.011 0,-7.313 -0.708,-14.461 -2.044,-21.39 h 108.346 v -15 H 219.484 c -2.588,-7.569 -5.962,-14.777 -10.021,-21.528 h 200.148 v -15 H 198.686 c -8.404,-9.889 -18.475,-18.318 -29.782,-24.838 h 61.895 l -0.103,-45.246 h 21.789 l 30.847,45.246 H 392.14 c 53.903,0 97.756,43.853 97.756,97.756 -0.001,53.903 -43.854,97.756 -97.757,97.756 z"
   id="path2" />
	<path
   style="fill:#0F2639;"
   d="M147.473,345.395l-6.659-13.441c-8.772,4.346-18.212,6.55-28.058,6.55   c-34.978,0-63.434-28.456-63.434-63.433c0-34.978,28.456-63.434,63.434-63.434c34.977,0,63.433,28.456,63.433,63.434   c0.001,16.417-6.276,32.001-17.673,43.881l10.824,10.385c14.09-14.686,21.849-33.958,21.849-54.266   c0-43.249-35.185-78.434-78.433-78.434c-43.248,0-78.434,35.185-78.434,78.434c0,43.248,35.185,78.433,78.434,78.433   C124.932,353.503,136.612,350.775,147.473,345.395z"
   id="path3" />
	<path
   style="fill:#0F2639;"
   d="M68.645,275.07c0,24.323,19.788,44.11,44.111,44.11c24.323,0,44.11-19.788,44.11-44.11   c0-24.323-19.788-44.111-44.11-44.111C88.433,230.959,68.645,250.747,68.645,275.07z M141.866,275.07   c0,16.051-13.059,29.11-29.11,29.11c-16.052,0-29.111-13.059-29.111-29.11c0-16.052,13.059-29.111,29.111-29.111   C128.807,245.959,141.866,259.018,141.866,275.07z"
   id="path4" />
	<rect
   x="354.697"
   y="238.681"
   style="fill:#0F2639;"
   width="105.826"
   height="15"
   id="rect4" />
	<path
   style="fill:#0F2639;"
   d="M368.614,302.482c-16.644,0-30.185,13.541-30.185,30.186h15c0-8.374,6.812-15.186,15.185-15.186   c8.373,0,15.185,6.812,15.185,15.186h15C398.799,316.022,385.258,302.482,368.614,302.482z"
   id="path5" />
	<path
   style="fill:#0F2639;"
   d="M368.614,272.73c-16.357,0-31.903,6.662-43.186,18.394h-86v15h92.774l2.246-2.627   c8.564-10.02,21.018-15.767,34.166-15.767c13.148,0,25.602,5.747,34.165,15.767l2.245,2.627h55.498v-15H411.8   C400.518,279.392,384.971,272.73,368.614,272.73z"
   id="path6" />
</g>
</svg>
