<?xml version="1.0" encoding="iso-8859-1"?>
<!-- Uploaded to: SVG Repo, www.svgrepo.com, Generator: SVG Repo Mixer Tools -->
<svg fill="#000000" height="800px" width="800px" version="1.1" id="Layer_1" xmlns="http://www.w3.org/2000/svg" xmlns:xlink="http://www.w3.org/1999/xlink" 
	 viewBox="0 0 512 512" xml:space="preserve">
<g transform="translate(1 1)">
	<g>
		<g>
			<path d="M54.467,301.08c4.267-2.56,5.973-7.68,3.413-11.947c-2.56-4.267-7.68-15.36-7.68-34.133s5.12-29.867,7.68-34.133
				s0.853-9.387-3.413-11.947c-4.267-1.707-9.387-0.853-11.947,3.413c-2.56,5.12-9.387,19.627-9.387,42.667
				s6.827,37.547,9.387,42.667c1.707,2.56,5.12,4.267,7.68,4.267C51.907,301.933,53.613,301.933,54.467,301.08z"/>
			<path d="M504.142,211.591c-0.13-1.939-0.768-3.605-1.818-4.891c-9.067-22.493-24.472-37.033-42.524-37.033H50.2
				C22.04,169.667-1,207.213-1,255s22.187,85.333,51.2,85.333h409.6c29.013,0,51.2-37.547,51.2-85.333
				C511,239.046,508.516,224.246,504.142,211.591z M16.067,255c0-40.107,17.92-68.267,34.133-68.267S84.333,214.893,84.333,255
				s-17.92,68.267-34.133,68.267S16.067,295.107,16.067,255z M459.8,323.267H81.773c3.752-4.824,7.082-10.576,9.886-17.067h78.007
				c5.12,0,8.533-3.413,8.533-8.533c0-5.12-3.413-8.533-8.533-8.533H97.361c0.982-3.94,1.787-8.048,2.422-12.283
				c0.021-0.136,0.044-0.271,0.064-0.408c0.146-0.995,0.277-2.001,0.403-3.01c0.075-0.593,0.148-1.187,0.216-1.785
				c0.091-0.814,0.176-1.632,0.254-2.455c0.078-0.821,0.148-1.646,0.213-2.475c0.054-0.697,0.109-1.393,0.154-2.095
				c0.065-1.02,0.114-2.049,0.158-3.081c0.024-0.558,0.055-1.111,0.073-1.672c0.051-1.611,0.083-3.233,0.083-4.869
				c0-1.599-0.03-3.184-0.081-4.759c-0.029-0.922-0.079-1.832-0.124-2.746c-0.028-0.551-0.05-1.105-0.085-1.652
				c-0.532-8.814-1.813-17.209-3.749-24.976h63.772c5.12,0,8.533-3.413,8.533-8.533s-3.413-8.533-8.533-8.533H91.66
				c-2.805-6.491-6.134-12.243-9.886-17.067H459.8c7.64,0,15.657,6.257,22.002,17.067H365.933c-5.12,0-8.533,3.413-8.533,8.533
				s3.413,8.533,8.533,8.533h123.182c2.314,7.581,3.918,16.195,4.531,25.6h-76.513c-5.12,0-8.533,3.413-8.533,8.533
				c0,5.12,3.413,8.533,8.533,8.533h76.513C491.329,299.039,474.836,323.267,459.8,323.267z"/>
			<path d="M195.267,220.867H331.8c5.12,0,8.533-3.413,8.533-8.533s-3.413-8.533-8.533-8.533H195.267
				c-5.12,0-8.533,3.413-8.533,8.533S190.147,220.867,195.267,220.867z"/>
			<path d="M263.533,246.467c-5.12,0-8.533,3.413-8.533,8.533c0,5.12,3.413,8.533,8.533,8.533h25.6c5.12,0,8.533-3.413,8.533-8.533
				c0-5.12-3.413-8.533-8.533-8.533H263.533z"/>
			<path d="M220.867,255c0-5.12-3.413-8.533-8.533-8.533H127c-5.12,0-8.533,3.413-8.533,8.533c0,5.12,3.413,8.533,8.533,8.533
				h85.333C217.453,263.533,220.867,260.12,220.867,255z"/>
			<path d="M314.733,255c0,5.12,3.413,8.533,8.533,8.533h51.2c5.12,0,8.533-3.413,8.533-8.533c0-5.12-3.413-8.533-8.533-8.533h-51.2
				C318.147,246.467,314.733,249.88,314.733,255z"/>
			<path d="M451.267,289.133H383c-5.12,0-8.533,3.413-8.533,8.533c0,5.12,3.413,8.533,8.533,8.533h68.267
				c5.12,0,8.533-3.413,8.533-8.533C459.8,292.547,456.387,289.133,451.267,289.133z"/>
			<path d="M323.267,289.133h-102.4c-5.12,0-8.533,3.413-8.533,8.533c0,5.12,3.413,8.533,8.533,8.533h102.4
				c5.12,0,8.533-3.413,8.533-8.533C331.8,292.547,328.387,289.133,323.267,289.133z"/>
		</g>
	</g>
</g>
</svg>