<?xml version="1.0" encoding="UTF-8" standalone="no"?>
<!-- Created with Inkscape (http://www.inkscape.org/) -->

<svg
   version="1.1"
   id="svg1"
   width="512"
   height="512"
   viewBox="0 0 512 512"
   sodipodi:docname="cave.svg"
   inkscape:version="1.3.2 (091e20e, 2023-11-25, custom)"
   xmlns:inkscape="http://www.inkscape.org/namespaces/inkscape"
   xmlns:sodipodi="http://sodipodi.sourceforge.net/DTD/sodipodi-0.dtd"
   xmlns="http://www.w3.org/2000/svg"
   xmlns:svg="http://www.w3.org/2000/svg">
  <defs
     id="defs1" />
  <sodipodi:namedview
     id="namedview1"
     pagecolor="#ffffff"
     bordercolor="#000000"
     borderopacity="0.25"
     inkscape:showpageshadow="2"
     inkscape:pageopacity="0.0"
     inkscape:pagecheckerboard="0"
     inkscape:deskcolor="#d1d1d1"
     inkscape:zoom="3.5761719"
     inkscape:cx="256"
     inkscape:cy="256"
     inkscape:window-width="3840"
     inkscape:window-height="2066"
     inkscape:window-x="-11"
     inkscape:window-y="-11"
     inkscape:window-maximized="1"
     inkscape:current-layer="g1" />
  <g
     inkscape:groupmode="layer"
     inkscape:label="Image"
     id="g1">
    <path
       style="fill:#000000"
       d="m 8.4237112,454.98065 c -2.536992,-1.25581 -4.8971303,-3.47826 -6.25,-5.88536 C -3.7709135,438.51826 4.0915197,427 17.256093,427 h 5.483783 L 34.841927,407.13753 46.943978,387.27507 47.221989,321.80901 47.5,256.34295 l 2.635727,-3.42147 c 1.44965,-1.88182 10.994756,-12.86289 21.211347,-24.4024 l 18.575621,-20.98092 0.288652,-44.01908 c 0.25808,-39.35668 0.470346,-44.35097 2.004073,-47.15255 1.196982,-2.18647 13.50758,-11.46948 40.73355,-30.715814 21.45997,-15.170289 40.43384,-28.314434 42.16414,-29.20921 1.7868,-0.923987 4.72307,-1.476469 6.79623,-1.278761 2.38375,0.227327 17.60495,7.79776 43.87044,21.819454 C 247.9009,88.791442 266,98.772814 266,99.163026 c 0,0.390212 -9.77596,8.181374 -21.72436,17.313694 -11.94839,9.13232 -22.49205,17.8235 -23.43035,19.31375 C 219.19582,138.41024 204,212.27519 204,217.67331 c 0,4.35227 3.99496,10.14584 8.49982,12.3266 5.20816,2.52123 7.80428,2.51538 13.06115,-0.0294 6.54562,-3.16868 7.69471,-6.54145 14.97833,-43.96386 3.58539,-18.42136 7.0683,-34.00564 7.7398,-34.63173 0.67149,-0.62609 18.36556,-14.20993 39.32015,-30.18632 l 38.09926,-29.047972 11.31794,2.863564 c 9.58589,2.425336 11.80759,3.371052 14.51751,6.179698 3.55752,3.68713 72.54615,100.1366 74.94742,104.78014 1.2386,2.39519 1.51862,7.51762 1.51862,27.78057 l 0,24.84388 7.45787,16.45578 7.45787,16.45577 21.8401,0.5 c 24.75899,0.56682 25.93376,0.90066 29.30599,8.32796 1.79215,3.94717 1.89543,7.47336 1.91621,65.42204 0.0219,60.97489 0.0311,61.25 2.0618,61.25 4.23252,0 9.69173,3.81405 11.85476,8.28228 2.63465,5.44246 2.64325,7.97522 0.0453,13.34189 -1.4957,3.08971 -3.22601,4.82002 -6.31572,6.31572 C 499.46943,456.95117 497.91933,457 438.23212,457 h -61.13643 l -0.29785,-44.75 c -0.23883,-35.88456 -0.5729,-45.24528 -1.68627,-47.25 -0.76364,-1.375 -6.4693,-7.675 -12.67924,-14 l -11.29081,-11.5 -0.32076,-19.04749 c -0.34702,-20.60687 -0.78989,-22.4205 -6.36722,-26.07491 -2.59517,-1.70042 -47.53201,-19.56272 -55.33155,-21.99417 -4.22814,-1.3181 -6.02537,-1.00347 -52.5,9.1909 -26.4671,5.80565 -49.45607,11.32989 -51.08661,12.27608 -6.1456,3.56628 -6.98241,6.63679 -7.53538,27.64959 l -0.5,19 -22.5,21.90331 c -12.375,12.04682 -23.5125,23.7051 -24.75,25.90728 -2.20442,3.92287 -2.25,4.65913 -2.25,36.34669 L 128,457 70.25,456.99921 c -55.905212,-7.6e-4 -57.880214,-0.0652 -61.8262888,-2.01856 z M 157.99983,429.25 l -1.7e-4,-27.75 24.46296,-24 c 20.68139,-20.29001 24.62243,-24.61833 25.49459,-28 0.5674,-2.2 1.03415,-10.0782 1.03721,-17.50712 l 0.006,-13.50711 37.05704,-8.18977 37.05704,-8.18977 18.69296,7.26172 18.69296,7.26172 0.5,17.43517 c 0.30806,10.74201 0.95423,18.20294 1.68323,19.43516 0.65078,1.1 6.16328,6.94233 12.25,12.98295 L 346,377.46589 V 417.23295 457 h -94 -94 z"
       id="path1" />
  </g>
</svg>
