<?xml version="1.0" encoding="utf-8"?>

<!-- Uploaded to: SVG Repo, www.svgrepo.com, Generator: SVG Repo Mixer Tools -->
<svg version="1.1" id="Icons" xmlns="http://www.w3.org/2000/svg" xmlns:xlink="http://www.w3.org/1999/xlink" 
	 viewBox="0 0 32 32" xml:space="preserve">
<style type="text/css">
	.st0{fill:none;stroke:#000000;stroke-width:2;stroke-linecap:round;stroke-linejoin:round;stroke-miterlimit:10;}
</style>
<path d="M16,3C10.5,3,6,7.5,6,13c0,8.4,9,15.5,9.4,15.8c0.2,0.1,0.4,0.2,0.6,0.2s0.4-0.1,0.6-0.2C17,28.5,26,21.4,26,13
	C26,7.5,21.5,3,16,3z M20.8,10.5L17.9,19c-0.1,0.4-0.5,0.7-0.9,0.7c0,0,0,0,0,0c-0.4,0-0.8-0.2-0.9-0.6l-1.6-3.6l-3.6-1.6
	c-0.4-0.2-0.6-0.5-0.6-1c0-0.4,0.3-0.8,0.7-0.9l8.5-2.8c0.4-0.1,0.8,0,1,0.2S20.9,10.1,20.8,10.5z"/>
</svg>