<?xml version="1.0" encoding="utf-8"?>

<!-- Uploaded to: SVG Repo, www.svgrepo.com, Generator: SVG Repo Mixer Tools -->
<svg version="1.1" id="Icons" xmlns="http://www.w3.org/2000/svg" xmlns:xlink="http://www.w3.org/1999/xlink" 
	 viewBox="0 0 32 32" xml:space="preserve">
<style type="text/css">
	.st0{fill:none;stroke:#000000;stroke-width:2;stroke-linecap:round;stroke-linejoin:round;stroke-miterlimit:10;}
</style>
<g>
	<path d="M16,3C10.5,3,6,7.5,6,13c0,8.4,9,15.5,9.4,15.8c0.2,0.1,0.4,0.2,0.6,0.2s0.4-0.1,0.6-0.2C17,28.5,26,21.4,26,13
		C26,7.5,21.5,3,16,3z M22,14.6c-0.1,0.5-0.7,0.8-1.2,0.7c-0.4-0.1-0.7,0-0.7,0c0,0,0,0.3,0.3,0.6c0.4,0.4,0.4,1,0,1.4
		c-0.8,0.8-1.7,1.3-2.8,1.6c-0.1,0-0.2,0-0.3,0c-0.4,0-0.8-0.3-1-0.7S16,17.7,16,17.7c0,0-0.3,0.2-0.4,0.6c-0.2,0.5-0.7,0.8-1.2,0.7
		c-1-0.3-2-0.8-2.8-1.6c-0.4-0.4-0.4-1,0-1.4c0.3-0.3,0.3-0.6,0.3-0.6c0,0-0.3-0.1-0.7,0c-0.5,0.1-1.1-0.2-1.2-0.7
		c-0.1-0.5-0.2-1.1-0.2-1.6s0.1-1.1,0.2-1.6c0.1-0.5,0.7-0.8,1.2-0.7c0.4,0.1,0.7,0,0.7,0c0,0,0-0.3-0.3-0.6c-0.4-0.4-0.4-1,0-1.4
		c0.8-0.8,1.7-1.3,2.8-1.6c0.5-0.1,1.1,0.2,1.2,0.7C15.7,8.1,16,8.3,16,8.3c0,0,0.3-0.2,0.4-0.6c0.2-0.5,0.7-0.8,1.2-0.7
		c1,0.3,2,0.8,2.8,1.6c0.4,0.4,0.4,1,0,1.4c-0.3,0.3-0.3,0.6-0.3,0.6c0,0,0.3,0.1,0.7,0c0.5-0.1,1.1,0.2,1.2,0.7
		c0.1,0.5,0.2,1.1,0.2,1.6S22.1,14.1,22,14.6z"/>
	<circle cx="16" cy="13" r="2"/>
</g>
</svg>